<?xml version="1.0" encoding="iso-8859-1"?>
<!-- Generator: Adobe Illustrator 19.0.0, SVG Export Plug-In . SVG Version: 6.00 Build 0)  -->
<svg xmlns="http://www.w3.org/2000/svg" xmlns:xlink="http://www.w3.org/1999/xlink" version="1.1" id="Layer_1" x="0px" y="0px" viewBox="0 0 511.999 511.999" style="enable-background:new 0 0 511.999 511.999;" xml:space="preserve">
<rect x="270.783" y="169.051" style="fill:#72CDED;" width="200.555" height="334.254"/>
<rect x="452.468" y="169.051" style="fill:#A3DFEF;" width="18.876" height="334.254"/>
<rect x="208.436" y="8.693" style="fill:#72CDED;" width="200.555" height="61.64"/>
<rect x="392.196" y="8.693" style="fill:#A3DFEF;" width="16.796" height="61.64"/>
<rect x="146.078" y="169.051" style="fill:#5FBAD3;" width="124.705" height="334.254"/>
<rect x="310.191" y="208.46" style="fill:#DCEBEF;" width="121.738" height="255.437"/>
<polygon style="fill:#55ABBF;" points="208.432,70.328 270.784,169.049 146.08,169.049 "/>
<polyline style="fill:#72CDED;" points="208.432,70.328 408.986,70.328 471.339,169.049 270.784,169.049 "/>
<polygon style="fill:#A3DFEF;" points="408.986,70.328 389.282,70.328 451.635,169.049 471.339,169.049 "/>
<path style="fill:#94E2F7;" d="M40.66,215.331h154.273v268.851c0,10.563-8.562,19.125-19.125,19.125H59.785  c-10.563,0-19.125-8.562-19.125-19.125V215.331z"/>
<path style="fill:#72CDED;" d="M80.068,484.182V215.331H40.66v268.851c0,10.563,8.562,19.125,19.125,19.125h39.409  C88.631,503.307,80.068,494.745,80.068,484.182z"/>
<path style="fill:#DCEBEF;" d="M40.66,269.326h154.273v214.856c0,10.563-8.562,19.125-19.125,19.125H59.785  c-10.563,0-19.125-8.562-19.125-19.125V269.326z"/>
<rect x="146.078" y="269.323" style="fill:#F2F2F2;" width="21.421" height="233.983"/>
<path style="fill:#D3DFE2;" d="M80.068,484.182V269.326H40.66v214.856c0,10.563,8.562,19.125,19.125,19.125h39.409  C88.631,503.307,80.068,494.745,80.068,484.182z"/>
<rect x="137.385" y="215.333" width="17.386" height="53.996"/>
<path d="M480.019,169.049c0-1.616-0.437-3.228-1.329-4.642l-61.009-96.594V8.693c0-4.801-3.892-8.693-8.693-8.693H208.433  c-4.801,0-8.693,3.892-8.693,8.693v59.119l-61.009,96.594c-0.877,1.39-1.343,2.999-1.343,4.642v37.589H40.66  c-4.801,0-8.693,3.892-8.693,8.693v130.127c0,4.801,3.892,8.693,8.693,8.693s8.693-3.892,8.693-8.693v-67.439H186.24v206.163  c0,5.753-4.68,10.432-10.432,10.432h-29.725H59.785c-5.751,0-10.432-4.679-10.432-10.432V374.433c0-4.801-3.892-8.693-8.693-8.693  s-8.693,3.892-8.693,8.693v109.748c0,15.339,12.479,27.818,27.818,27.818h86.3h29.725h94.976h0.005h200.549  c4.801,0,8.693-3.892,8.693-8.693V169.049H480.019z M275.576,160.356l-18.662-29.546c-2.564-4.059-7.932-5.271-11.992-2.708  c-4.059,2.564-5.271,7.933-2.708,11.992l12.801,20.266h-93.164l46.582-73.753l17.258,27.323c2.564,4.058,7.933,5.271,11.992,2.708  s5.271-7.933,2.708-11.992l-16.184-25.624h179.992l51.371,81.335H275.576V160.356z M217.125,17.386h183.169v44.249H217.125  L217.125,17.386L217.125,17.386z M49.353,260.633v-36.609H186.24v36.609H49.353z M279.482,494.614v-37.89  c0-4.801-3.892-8.693-8.693-8.693s-8.693,3.892-8.693,8.693v37.89h-60.507c1.31-3.223,2.036-6.743,2.036-10.432V215.331  c0-4.801-3.892-8.693-8.693-8.693h-40.16v-28.892h107.324v250.001c0,4.801,3.892,8.693,8.693,8.693s8.693-3.892,8.693-8.693V177.742  h183.163v316.872L279.482,494.614L279.482,494.614z"/>
<path d="M431.93,199.763h-11.535c-4.801,0-8.693,3.892-8.693,8.693s3.892,8.693,8.693,8.693h2.842v238.056H318.886V217.149h72.533  c4.801,0,8.693-3.892,8.693-8.693s-3.892-8.693-8.693-8.693h-81.226c-4.801,0-8.693,3.892-8.693,8.693v255.442  c0,4.801,3.892,8.693,8.693,8.693H431.93c4.801,0,8.693-3.892,8.693-8.693V208.456C440.624,203.656,436.731,199.763,431.93,199.763z  "/>
<path d="M145.16,460.506c-3.492-1.442-7.653-0.42-10.05,2.513c-2.32,2.839-2.594,6.925-0.691,10.054  c3.993,6.563,14.188,4.757,15.886-2.635C151.243,466.356,148.995,462.124,145.16,460.506z"/>
<path d="M163.764,437.395c-1.386-3.284-4.659-5.451-8.24-5.364c-3.863,0.094-7.272,2.827-8.217,6.572  c-0.904,3.585,0.65,7.49,3.783,9.452c3.101,1.943,7.142,1.746,10.027-0.511C164.137,445.183,165.257,440.931,163.764,437.395z"/>
<path d="M160.657,461.224c-5.561,5.561-1.083,15.421,6.782,14.821c7.74-0.591,10.863-10.748,4.704-15.521  C168.724,457.873,163.729,458.157,160.657,461.224z"/>
<g>
</g>
<g>
</g>
<g>
</g>
<g>
</g>
<g>
</g>
<g>
</g>
<g>
</g>
<g>
</g>
<g>
</g>
<g>
</g>
<g>
</g>
<g>
</g>
<g>
</g>
<g>
</g>
<g>
</g>
</svg>
