<?xml version="1.0" encoding="UTF-8"?>
<!DOCTYPE svg PUBLIC "-//W3C//DTD SVG 1.1//EN" "http://www.w3.org/Graphics/SVG/1.1/DTD/svg11.dtd">
<!-- Creator: CorelDRAW -->
<svg xmlns="http://www.w3.org/2000/svg" xml:space="preserve" width="2048px" height="2048px" style="shape-rendering:geometricPrecision; text-rendering:geometricPrecision; image-rendering:optimizeQuality; fill-rule:evenodd; clip-rule:evenodd"
viewBox="0 0 2048 2048"
 xmlns:xlink="http://www.w3.org/1999/xlink">
 <defs>
  <style type="text/css">
   <![CDATA[
    .fil1 {fill:none}
    .fil0 {fill:#009688}
    .fil3 {fill:#FFFFFE}
    .fil2 {fill:#FFFFFE;fill-rule:nonzero}
   ]]>
  </style>
 </defs>
 <g id="Layer_x0020_1">
  <metadata id="CorelCorpID_0Corel-Layer"/>
  <rect class="fil0" width="2048" height="2048"/>
  <rect class="fil1" x="255.999" y="255.999" width="1536" height="1536"/>
  <path class="fil2" d="M1600.92 1088.74c4.46221,-3.17008 10.0335,-7.0193 15.6851,-10.9228 12.8811,-8.89725 26.2961,-18.1654 36.4618,-26.7366 2.18386,-1.84252 22.3417,18.7807 14.2264,9.15709l-0.124016 -0.125197c-214.951,-256.145 -439.712,-310.294 -627.74,-287.307 -189.745,23.1957 -343.431,124 -412.624,176.749 -18.2221,13.8744 -38.85,19.6949 -58.9713,18.1347 -20.5925,-1.59921 -40.2059,-10.8378 -55.7575,-26.9988 -15.4158,-16.0099 -34.4646,-33.8658 -54.1548,-51.4713 -24.9626,-22.3217 -51.3945,-44.6646 -73.0359,-62.5725 3.17126,29.9563 13.4315,63.0449 26.211,94.6513 15.6106,38.6079 35.289,75.1595 50.6847,101.528l-0.0933072 0.0543308c9.74528,16.6181 13.6169,36.4418 12.9213,56.0008 -0.718111,20.2441 -6.3567,40.8118 -15.3591,57.2008l-0.125197 0c-14.5441,26.2772 -26.9173,59.5607 -36.9898,92.4721 -7.07481,23.1166 -13.0441,46.3654 -17.8465,66.9981 11.2441,-7.66182 23.3232,-16.0795 35.5394,-24.711 23.1508,-16.3583 46.0004,-32.915 64.4989,-46.4859 17.4721,-12.7913 37.1988,-18.0508 57.2906,-17.524 20.4142,0.532678 40.8863,7.18819 59.1685,17.9079l0.124016 0c151.504,89.432 330.453,138.721 508.577,137.776 166.016,-0.881103 331.273,-45.4902 472.675,-142.044 8.58662,-5.87245 17.2441,-11.7413 25.6961,-17.2311 -15.8256,-7.65237 -29.739,-19.0441 -38.8075,-31.7351 -5.87363,-8.2193 -9.99213,-17.2701 -11.7839,-26.7236 -2.1248,-11.1945 -0.957875,-22.5331 4.27087,-33.4465 4.08426,-8.51812 10.4315,-16.1988 19.3819,-22.5933zm51.9355 41.5772c-3.21142,2.21811 -6.38977,4.41378 -9.70513,6.73465 3.10512,3.31772 7.47756,6.41812 12.5469,8.84883l0.125197 0c17.2217,8.33032 34.8922,17.4768 46.6985,25.1776 53.5536,34.9323 64.8756,62.3764 -6.82796,71.3623l-0.0129921 -0.10748 -4.94882 0.63189c-1.22008,0.153543 -2.2689,0.288189 -8.65749,1.25433l-0.750001 0c-1.09016,0.137008 -2.91614,2.53583 -9.57993,6.66733 -8.74253,5.42245 -21.0154,13.741 -33.5811,22.3335 -152.358,104.035 -330.09,152.099 -508.425,153.045 -189.727,1.00748 -380.197,-51.4134 -541.327,-146.528l0.0318898 -0.0531496c-9.37205,-5.47914 -19.226,-8.86536 -28.3252,-9.10276 -6.52678,-0.17126 -12.7642,1.41142 -18.0402,5.27363 -19.3666,14.2075 -42.7855,31.1859 -65.4981,47.2347 -17.9929,12.7134 -36.0378,25.1965 -52.1197,35.8618l-0.125197 0c-12.3945,8.15434 -24.6827,12.4429 -35.7496,13.337 -11.3693,0.918898 -21.8764,-1.54725 -30.8492,-7.01457 -9.83741,-5.99528 -16.9465,-14.9646 -20.589,-26.4921 -2.90788,-9.2067 -3.39567,-19.8815 -0.896457,-31.5579 5.54056,-26.1331 13.7669,-60.8457 24.8858,-97.1717 11.1532,-36.4406 25.1681,-73.8674 42.2091,-104.669l-0.0956694 -0.0531496c4.4504,-8.10237 7.24371,-18.4205 7.60867,-28.7008 0.294095,-8.29134 -0.955513,-16.0264 -4.20118,-21.5528l-0.125197 0c-16.2969,-27.9107 -37.3288,-67.0997 -54.6863,-110.029 -17.7319,-43.8508 -31.3087,-91.3973 -31.7233,-134.809l0 -0.125197c-0.0885827,-14.9504 4.48701,-27.3343 12.2965,-36.7701 5.08937,-6.15237 11.5358,-10.8721 18.9957,-14.1024 6.68386,-2.8937 13.9725,-4.38662 21.5729,-4.42914 15.3165,-0.0897638 32.3008,5.863 47.3351,18.3012l-0.0507874 0.0614174c22.7858,18.7748 52.0418,43.4103 80.1508,68.5453 21.2799,19.0276 41.6315,38.08 57.6532,54.7193 4.37126,4.54252 9.46654,7.10788 14.5087,7.49882 4.99607,0.387402 10.3902,-1.26378 15.4713,-5.13307 74.1036,-56.491 238.897,-164.472 443.624,-189.5 206.444,-25.239 452.157,32.9504 684.49,309.807l-0.0129921 0.0106299c23.8229,28.3937 8.32323,55.2745 -21.8374,80.7095 -12.0969,10.2 -27.0768,20.5488 -41.4626,30.4855z"/>
  <ellipse class="fil3" transform="matrix(0.616699 0.273933 -0.273933 0.616699 1453.47 1017.76)" rx="79.6264" ry="50.9268"/>
 </g>
</svg>
