<?xml version="1.0" encoding="UTF-8"?>
<!DOCTYPE svg PUBLIC "-//W3C//DTD SVG 1.1//EN" "http://www.w3.org/Graphics/SVG/1.1/DTD/svg11.dtd">
<!-- Creator: CorelDRAW -->
<svg xmlns="http://www.w3.org/2000/svg" xml:space="preserve" width="6.82666in" height="6.82666in" style="shape-rendering:geometricPrecision; text-rendering:geometricPrecision; image-rendering:optimizeQuality; fill-rule:evenodd; clip-rule:evenodd"
viewBox="0 0 6.82666 6.82666"
 xmlns:xlink="http://www.w3.org/1999/xlink">
 <defs>
  <style type="text/css">
   <![CDATA[
    .fil1 {fill:none}
    .fil0 {fill:#424242}
    .fil2 {fill:#FFFFFE;fill-rule:nonzero}
   ]]>
  </style>
 </defs>
 <rect class="fil0" width="6.82666" height="6.82666"/>
 <g id="Layer_x0020_1">
  <metadata id="CorelCorpID_0Corel-Layer"/>
  <g id="_582506952">
   <rect id="_582506616" class="fil1" width="6.82666" height="6.82666"/>
   <rect id="_582507096" class="fil1" x="0.853331" y="0.853331" width="5.12" height="5.12"/>
  </g>
  <g id="_582505824">
   <path id="_582506976" class="fil2" d="M1.77957 0.96278l0.346913 0c0.445031,-0.0732638 0.876933,-0.109598 1.29584,-0.109441 0.418913,0.000153543 0.823638,0.0367953 1.21434,0.109441l0.41774 0 0.10874 0 0 0.109161 -3.93701e-006 0.381476c0.152677,0.659295 0.218315,1.30745 0.212902,1.94651 -0.00540551,0.638567 -0.0817126,1.2662 -0.212902,1.88534l3.93701e-006 0.371437 0 0.109161 -0.10874 0c-0.0504843,0 -0.103098,-0.00543701 -0.155701,-0.0108701 -0.0855866,-0.00883858 -0.171185,-0.0176772 -0.239173,0.00490157 -0.435776,0.144744 -0.826752,0.214654 -1.22407,0.213417 -0.396933,-0.00123228 -0.797681,-0.073315 -1.25349,-0.212567 -0.0362953,-0.0110906 -0.189984,-0.00395669 -0.297776,0.00103937 -0.0477835,0.0022126 -0.0880512,0.00407874 -0.10463,0.00407874l-0.109165 0 0 -0.109161 0 -0.388449c-0.132638,-0.54815 -0.212661,-1.12787 -0.219598,-1.75131 -0.00693307,-0.623516 0.0594213,-1.29015 0.219598,-2.01191l0 -0.433094 0 -0.109161 0.109165 0zm0.35402 0.218327l-0.244854 0 0 0.333909 -0.00298819 0.0234528c-0.158598,0.710146 -0.224272,1.36504 -0.217469,1.97676 0.00679134,0.610331 0.0859449,1.17837 0.217043,1.71595l0.00341339 0.0255866 0 0.286902c0.121705,-0.00561024 0.286516,-0.0123386 0.356354,0.00899213 0.435724,0.133118 0.816484,0.202016 1.19037,0.203181 0.373512,0.00115748 0.742732,-0.0651181 1.15584,-0.202331 0.112941,-0.0375118 0.221268,-0.0263228 0.329579,-0.0151339 0.00825591,0.000854331 0.0165197,0.00170472 0.0247874,0.0025315l-3.93701e-006 -0.268134 0.0021378 -0.0226024c0.129902,-0.610213 0.205472,-1.22691 0.210768,-1.85196 0.0052874,-0.624461 -0.0595236,-1.25917 -0.210346,-1.90641l-0.00255906 -0.0247283 3.93701e-006 -0.285969 -0.317583 0 -0.0200394 -0.0021378c-0.382173,-0.0717953 -0.77737,-0.108004 -1.18572,-0.108157 -0.409209,-0.000153543 -0.832909,0.0358898 -1.27125,0.108587l-0.0174803 0.00170866z"/>
   <g>
    <polygon id="_582506688" class="fil2" points="2.04852,2.6492 4.77814,2.6492 4.77814,2.86753 2.04852,2.86753 "/>
    <polygon id="_582506568" class="fil2" points="2.04852,3.95913 4.77814,3.95913 4.77814,4.17746 2.04852,4.17746 "/>
   </g>
   <path id="_582506928" class="fil2" d="M2.31002 3.73194l0 -0.647764 0.444157 0 0 0.109642 -0.313248 0 0 0.153232 0.270421 0 0 0.109646 -0.270421 0 0 0.275244 -0.130909 0zm0.551091 0l0 -0.647764 0.124126 0 0 0.647764 -0.124126 0zm0.22261 -0.241307c0,-0.0411732 0.010252,-0.0811417 0.0304646,-0.119752 0.0203622,-0.0384606 0.0491654,-0.0680197 0.0864173,-0.0882283 0.0372559,-0.0203622 0.078878,-0.0306181 0.124878,-0.0306181 0.0708898,0 0.129102,0.0230748 0.1745,0.0692283 0.0453937,0.0461457 0.0680197,0.104362 0.0680197,0.174795 0,0.0708898 -0.0229252,0.129705 -0.068626,0.176461 -0.0458465,0.0467559 -0.103461,0.0699764 -0.172988,0.0699764 -0.0431339,0 -0.0840039,-0.00964961 -0.123067,-0.0291063 -0.039063,-0.0194528 -0.0687717,-0.0479606 -0.0891339,-0.0855157 -0.0202126,-0.0375512 -0.0304646,-0.083248 -0.0304646,-0.13724zm0.127291 0.00663386c0,0.0466024 0.0110118,0.0821969 0.0331772,0.106933 0.0220197,0.0247283 0.0493228,0.0370984 0.081748,0.0370984 0.0324252,0 0.0595748,-0.0123701 0.081437,-0.0370984 0.0220236,-0.0247362 0.0330315,-0.0606299 0.0330315,-0.107839 0,-0.0458465 -0.0110079,-0.0812913 -0.0330315,-0.106024 -0.0218622,-0.0247362 -0.0490118,-0.0371024 -0.081437,-0.0371024 -0.0324252,0 -0.0597283,0.0123661 -0.081748,0.0371024 -0.0221654,0.0247323 -0.0331772,0.0604803 -0.0331772,0.106929zm0.763146 0.234673l0 -0.0702835c-0.0171969,0.0250394 -0.0396654,0.0447953 -0.0674173,0.0592717 -0.0279016,0.0143307 -0.057311,0.0215669 -0.0882283,0.0215669 -0.0315197,0 -0.0597244,-0.00693701 -0.0847598,-0.0206614 -0.0250394,-0.013874 -0.0431378,-0.0333307 -0.0544449,-0.0583622 -0.0111614,-0.0250394 -0.0167441,-0.0597283 -0.0167441,-0.103917l0 -0.296811 0.124126 0 0 0.21552c0,0.0660591 0.00225984,0.10648 0.00693701,0.121409 0.00452362,0.0147795 0.0128189,0.0265472 0.0248858,0.0352913 0.0120669,0.00874803 0.0274488,0.0129724 0.046,0.0129724 0.0212638,0 0.0402677,-0.00573228 0.0570079,-0.0173465 0.0167441,-0.0117638 0.0282008,-0.0260945 0.0343858,-0.0432835 0.00618504,-0.0173465 0.00935039,-0.0595748 0.00935039,-0.126689l0 -0.197874 0.124126 0 0 0.469197 -0.115224 0zm0.362717 0l-0.124122 0 0 -0.469197 0.115224 0 0 0.0666614c0.0197598,-0.0315197 0.0375551,-0.0523346 0.0532402,-0.0622874 0.0158346,-0.00995276 0.0336339,-0.0150827 0.0536929,-0.0150827 0.0283543,0 0.0555,0.00784252 0.0817402,0.0235276l-0.0384567 0.108138c-0.020815,-0.0134252 -0.0402677,-0.0202087 -0.0582165,-0.0202087 -0.0174921,0 -0.032122,0.00467323 -0.044189,0.0143268 -0.0122165,0.0095 -0.0215669,0.0268465 -0.0285079,0.0518819 -0.00693701,0.0250354 -0.0104055,0.0775197 -0.0104055,0.157303l0 0.144937z"/>
  </g>
 </g>
</svg>
