<svg xmlns="http://www.w3.org/2000/svg" viewBox="0 0 64 64"><g id="_19-sauce" data-name="19-sauce"><path d="M27,35V51a4,4,0,0,1-4,4H9a4,4,0,0,1-4-4V35a4,4,0,0,1,4-4H23A4,4,0,0,1,27,35ZM20.23,48A2.783,2.783,0,0,0,23,45.2a2.612,2.612,0,0,0-2.31-2.4s-2.77.4-2.77-1.2S14.65,40,14.65,40C12.36,40,11,41.43,11,43.2c0,2.65,1.65,4.8,3.69,4.8Z" style="fill:#e8e4dc"/><path d="M9,55H23a4,4,0,0,0,4-4v5.62a1.992,1.992,0,0,1-1.55,1.95A26.876,26.876,0,0,1,20,59l-2-1H14l-2,1a26.876,26.876,0,0,1-5.45-.43A1.992,1.992,0,0,1,5,56.62V51A4,4,0,0,0,9,55Z" style="fill:#4d2829"/><path d="M17.92,41.6c0,1.6,2.77,1.2,2.77,1.2A2.612,2.612,0,0,1,23,45.2,2.783,2.783,0,0,1,20.23,48H14.69C12.65,48,11,45.85,11,43.2c0-1.77,1.36-3.2,3.65-3.2C14.65,40,17.92,40,17.92,41.6Z" style="fill:#ea735c"/><polygon points="10 17 22 17 21 20 11 20 10 17" style="fill:#4d2829"/><polygon points="21 1 21 5 20 5 12 5 11 5 11 1 21 1" style="fill:#a0968c"/><path d="M22,10.77V17H10V10.77a4.032,4.032,0,0,1,.29-1.49L12,5h8l1.71,4.28A4.032,4.032,0,0,1,22,10.77Z" style="fill:#6b362c"/><path d="M31,29.92V57a6,6,0,0,1-6,6H7a6,6,0,0,1-6-6V29.92A4,4,0,0,1,2.5,26.8L11,20H21l8.5,6.8A4,4,0,0,1,31,29.92Zm-4,26.7V35a4,4,0,0,0-4-4H9a4,4,0,0,0-4,4V56.62a1.992,1.992,0,0,0,1.55,1.95A26.876,26.876,0,0,0,12,59l2-1h4l2,1a26.876,26.876,0,0,0,5.45-.43A1.992,1.992,0,0,0,27,56.62Z" style="fill:#6b362c"/><rect x="11" y="2" width="1" height="2" style="fill:#918778"/><rect x="13" y="2" width="1" height="2" style="fill:#918778"/><rect x="15" y="2" width="1" height="2" style="fill:#918778"/><rect x="19" y="2" width="1" height="2" style="fill:#918778"/><rect x="17" y="2" width="1" height="2" style="fill:#918778"/><path d="M23,32H9a3,3,0,0,0-3,3V51a3,3,0,0,0,3,3H23a3,3,0,0,0,3-3V35A3,3,0,0,0,23,32ZM20.23,48H14.69C12.65,48,11,45.85,11,43.2c0-1.77,1.36-3.2,3.65-3.2,0,0,3.27,0,3.27,1.6s2.77,1.2,2.77,1.2A2.612,2.612,0,0,1,23,45.2,2.783,2.783,0,0,1,20.23,48Z" style="fill:#ff9873"/><polygon points="13 17 10 17 11 20 14 20 13 17" style="fill:#331a1b"/><path d="M13,13a4,4,0,0,1,4-4h4.6L20,5H12L10.29,9.28A4.032,4.032,0,0,0,10,10.77V17h3Z" style="fill:#4d271f"/><path d="M25,59H11c-.172,0-.342-.012-.511-.026a22.942,22.942,0,0,1-3.939-.4A1.992,1.992,0,0,1,5,56.62V30.657a4,4,0,0,1,1.172-2.829L14,20H11L2.5,26.8A4,4,0,0,0,1,29.92V57a6,6,0,0,0,6,6H25a6,6,0,0,0,6-6V53A6,6,0,0,1,25,59Z" style="fill:#4d271f"/><path d="M30.013,29.361a3.033,3.033,0,0,0,.317-1.612,3.945,3.945,0,0,0-.83-.949l-8.491-6.793a1.993,1.993,0,0,0-1.789,1.079,2.076,2.076,0,0,0,.668,2.579l.265.2A1.742,1.742,0,0,1,19.107,27h0a2.075,2.075,0,0,0-2.08,1.664A2,2,0,0,0,19,31h8.17A3.154,3.154,0,0,0,30.013,29.361Z" style="fill:#8a4539"/><rect x="27" y="34" width="4" height="18" rx="2" ry="2" style="fill:#8a4539"/><rect x="9" y="27" width="7" height="4" rx="2" ry="2" style="fill:#8a4539"/><rect x="19" y="11" width="3" height="6" rx="1.5" ry="1.5" style="fill:#8a4539"/><ellipse cx="22.58" cy="34.695" rx="1.642" ry="2.286" transform="translate(-17.922 26.142) rotate(-45.02)" style="fill:#f6fafd"/><ellipse cx="21.577" cy="38.708" rx="0.825" ry="1.148" transform="translate(-21.055 26.609) rotate(-45.02)" style="fill:#f6fafd"/><rect x="33" y="60" width="12" height="3" style="fill:#cdc3b4"/><rect x="33" y="57" width="12" height="3" style="fill:#ede9e1"/><path d="M50,48.49a2.106,2.106,0,0,1-1.18,1.82A8.173,8.173,0,0,0,45,57H33a8.173,8.173,0,0,0-3.82-6.69A2.106,2.106,0,0,1,28,48.49V47c0,1.66,4.92,3,11,3s11-1.34,11-3Z" style="fill:#e7aa2f"/><path d="M47.84,29.01C47.85,25.52,48,23,48,23V21a4,4,0,0,0-4-4H34a4,4,0,0,0-4,4v2s.15,2.52.16,6.02C30.18,34.61,29.84,42.7,28,47c0,1.66,4.92,3,11,3s11-1.34,11-3C48.15,42.69,47.82,34.6,47.84,29.01ZM42,42H36L33,29h1l-1-4h2c0-1.11,1.24-3,4-3s4,1.89,4,3h2l-1,4h1Z" style="fill:#ffcf4f"/><path d="M45,29,42,42H36L33,29h1l-1-4h2c0-1.11,1.24-3,4-3s4,1.89,4,3h2l-1,4Z" style="fill:#f7f3eb"/><path d="M33.18,50.31a2.3,2.3,0,0,1-.941-.945C29.662,48.816,28,47.963,28,47v1.49a2.106,2.106,0,0,0,1.18,1.82A8.173,8.173,0,0,1,33,57h4A8.173,8.173,0,0,0,33.18,50.31Z" style="fill:#e79d2f"/><path d="M32.239,49.365A1.858,1.858,0,0,1,32,48.49V47c1.369-3.2,1.907-8.495,2.085-13.3L33,29h1l-1-4h1.087C34.044,23.752,34,23,34,23V21a4,4,0,0,1,4-4H34a4,4,0,0,0-4,4v2s.15,2.52.16,6.02C30.18,34.61,29.84,42.7,28,47,28,47.963,29.662,48.816,32.239,49.365Z" style="fill:#f4be2b"/><rect x="33" y="62" width="12" height="1" style="fill:#e7aa2f"/><path d="M43.041,45.8a4.844,4.844,0,0,0-2.26,1.005.807.807,0,0,0-.24.457.692.692,0,0,0,.3.591,1.776,1.776,0,0,0,.636.263,9.151,9.151,0,0,0,4.016.108,4.5,4.5,0,0,0,1.595-.589,2.245,2.245,0,0,0,1-1.338,1.8,1.8,0,0,0-.429-1.6,1.534,1.534,0,0,0-2.04-.293A8.392,8.392,0,0,1,43.041,45.8Z" style="fill:#ffe296"/><path d="M41.316,17.985a3.019,3.019,0,0,0-1.191.2,1.225,1.225,0,0,0-.745.895c-.083.605.422,1.115.891,1.507q.773.646,1.573,1.261a5,5,0,0,0,3.119,1.315A2.131,2.131,0,0,0,46.44,22.5a2.526,2.526,0,0,0,.475-1.74,1.976,1.976,0,0,0-.753-1.473A4.07,4.07,0,0,0,44.7,18.42,9.629,9.629,0,0,0,41.316,17.985Z" style="fill:#ffe296"/><polygon points="55 17 57 25 51 25 53 17 55 17" style="fill:#ea735c"/><path d="M45,38H63V56H45Zm9,15a5,5,0,0,0,5-5c0-2.76-2.24-4-5-4s-5,1.24-5,4A5,5,0,0,0,54,53Z" style="fill:#e8e4dc"/><path d="M63,31v7H45V31a2.006,2.006,0,0,1,2-2H61A2.006,2.006,0,0,1,63,31Z" style="fill:#ea735c"/><path d="M54,44c2.76,0,5,1.24,5,4a5,5,0,0,1-10,0C49,45.24,51.24,44,54,44Z" style="fill:#e84655"/><path d="M60,27v2H48V27a2.006,2.006,0,0,1,2-2h8A2.006,2.006,0,0,1,60,27Z" style="fill:#e8e4dc"/><path d="M63,56v5a2.006,2.006,0,0,1-2,2H47a2.006,2.006,0,0,1-2-2V56Z" style="fill:#ea735c"/><path d="M55,51a5,5,0,0,1-5-5,4.377,4.377,0,0,1,.071-.676A3.579,3.579,0,0,0,49,48a4.993,4.993,0,0,0,9.855,1.147A4.967,4.967,0,0,1,55,51Z" style="fill:#c43b48"/><path d="M58,27H50a2,2,0,0,1-1.721-1A1.975,1.975,0,0,0,48,27v2H60V27a1.975,1.975,0,0,0-.279-1A2,2,0,0,1,58,27Z" style="fill:#d6cec1"/><path d="M54.153,24a1,1,0,0,1-.99-1.141L54,17H53l-2,8h6l-.25-1Z" style="fill:#bd4c3d"/><path d="M49.866,50.809A4.971,4.971,0,0,1,49,48a4.422,4.422,0,0,1,.068-.648C49.026,46.907,49,46.457,49,46V38H45V56h8.211A14,14,0,0,1,49.866,50.809Z" style="fill:#d6cec1"/><path d="M49,31a2,2,0,0,1,2-2H47a2.006,2.006,0,0,0-2,2v7h4Z" style="fill:#bd4c3d"/><path d="M45,56v5a2.006,2.006,0,0,0,2,2H61a2.006,2.006,0,0,0,2-2V60a13.948,13.948,0,0,1-9.789-4Z" style="fill:#bd4c3d"/><path d="M59,39a2,2,0,0,0,4,0V38H59Z" style="fill:#f7f3eb"/><path d="M60,29H55.107a2.075,2.075,0,0,0-2.08,1.664A2,2,0,0,0,55,33h2a2,2,0,0,1,2,2v3h4V32A3,3,0,0,0,60,29Z" style="fill:#ff7d64"/><path d="M61,42a2,2,0,0,0-2,2v2a2,2,0,0,0,4,0V44A2,2,0,0,0,61,42Z" style="fill:#f7f3eb"/><ellipse cx="60.58" cy="31.695" rx="1.642" ry="2.286" transform="translate(-4.661 52.142) rotate(-45.02)" style="fill:#f6fafd"/><ellipse cx="56.577" cy="46.708" rx="0.825" ry="1.148" transform="translate(-16.454 53.712) rotate(-45.02)" style="fill:#f6fafd"/><path d="M61,28V27a3,3,0,0,0-3-3h-.219L55.97,16.758A1,1,0,0,0,55,16H53a1,1,0,0,0-.97.758L50.219,24H50a3,3,0,0,0-3,3v1a3,3,0,0,0-3,3V61a3,3,0,0,0,3,3H61a3,3,0,0,0,3-3V31A3,3,0,0,0,61,28ZM53.781,18h.438l1.5,6H52.281ZM49,27a1,1,0,0,1,1-1h8a1,1,0,0,1,1,1v1H49Zm-2,3H61a1,1,0,0,1,1,1v6H46V31A1,1,0,0,1,47,30ZM62,55H46V39H62Zm-1,7H47a1,1,0,0,1-1-1V57H62v4A1,1,0,0,1,61,62Z"/><path d="M54,54a6.006,6.006,0,0,0,6-6,4.739,4.739,0,0,0-3.87-4.724A6.022,6.022,0,0,1,58,43V41a7.519,7.519,0,0,0-3,.579V40H53v1.389A9.342,9.342,0,0,0,50,41v2a8.368,8.368,0,0,1,2.165.21C49.6,43.769,48,45.515,48,48A6.006,6.006,0,0,0,54,54Zm0-9c1.2,0,4,.292,4,3a4,4,0,0,1-8,0C50,45.292,52.8,45,54,45Z"/><path d="M30.442,49.938A31.863,31.863,0,0,0,39,51c1.046,0,2.081-.039,3.077-.115l-.154-1.994C40.979,48.963,39.995,49,39,49c-5.843,0-9.467-1.239-9.951-1.928,2.9-7.3,1.99-23.436,1.951-24.072V21a3,3,0,0,1,3-3H44a3,3,0,0,1,3,3v1h2V21a5.006,5.006,0,0,0-5-5H34a5.006,5.006,0,0,0-5,5l0,2.059c.008.146.728,12.873-1,20.565V35a5.006,5.006,0,0,0-5-5H9a5.006,5.006,0,0,0-5,5v2H6V35a3,3,0,0,1,3-3H23a3,3,0,0,1,3,3V51a3,3,0,0,1-3,3H9a3,3,0,0,1-3-3V43H4V56.621a3,3,0,0,0,2.336,2.926A28.081,28.081,0,0,0,12,60a1,1,0,0,0,.447-.1l1.789-.9h3.528l1.789.9A1,1,0,0,0,20,60a28.1,28.1,0,0,0,5.665-.453A3,3,0,0,0,28,56.621v-5.93a3.5,3.5,0,0,0,.706.5A7.189,7.189,0,0,1,32,57v6a1,1,0,0,0,1,1H43V62H34V61h5V59H34V58h9V56H33.92A9.367,9.367,0,0,0,30.442,49.938Zm-5.2,7.654A25.051,25.051,0,0,1,20.235,58l-1.788-.894A1,1,0,0,0,18,57H14a1,1,0,0,0-.447.1L11.765,58a25.051,25.051,0,0,1-5.006-.407A.987.987,0,0,1,6,56.621V54.974A4.948,4.948,0,0,0,9,56H23a4.948,4.948,0,0,0,3-1.026v1.647A.987.987,0,0,1,25.241,57.592Z"/><path d="M41.205,41H36.8L34.25,29.969a1,1,0,0,0,.72-1.211L34.281,26H35a1,1,0,0,0,1-1c0-.513.739-2,3-2s3,1.487,3,2a1,1,0,0,0,1,1h2V24H43.815A4.9,4.9,0,0,0,39,21a4.9,4.9,0,0,0-4.815,3H33a1,1,0,0,0-.97,1.242l.7,2.795a1,1,0,0,0-.7,1.188l3,13A1,1,0,0,0,36,43h6a1,1,0,0,0,.975-.775l.922-4-1.949-.45Z"/><rect x="41" y="59" width="2" height="2"/><path d="M25,62H7a5.006,5.006,0,0,1-5-5V29.923A2.99,2.99,0,0,1,3.125,27.58L11.351,21h9.3l6.726,5.381,1.249-1.563-6.455-5.163.78-2.339-.012,0A.979.979,0,0,0,23,17V14H21v2H11V10.771a2.977,2.977,0,0,1,.215-1.115L12.677,6h6.646l1.463,3.657A2.987,2.987,0,0,1,21,10.771V12h2V10.771a5,5,0,0,0-.357-1.857L21.434,5.891A.993.993,0,0,0,22,5V1a1,1,0,0,0-1-1H11a1,1,0,0,0-1,1V5a.993.993,0,0,0,.566.891L9.358,8.913A4.985,4.985,0,0,0,9,10.771V17a.979.979,0,0,0,.063.312l-.012,0,.78,2.339L1.876,26.019A4.976,4.976,0,0,0,0,29.923V57a7.008,7.008,0,0,0,7,7H25a7.008,7.008,0,0,0,7-7H30A5.006,5.006,0,0,1,25,62ZM11.721,19l-.334-1h9.226l-.334,1ZM12,2h8V4H12Z"/><rect x="4" y="39" width="2" height="2"/><path d="M20.231,49A3.789,3.789,0,0,0,24,45.2a3.584,3.584,0,0,0-3.308-3.4,1.1,1.1,0,0,0-.14.01,2.385,2.385,0,0,1-1.629-.21c0-1.919-2.3-2.6-4.271-2.6C11.957,39,10,40.767,10,43.2c0,3.2,2.105,5.8,4.692,5.8ZM12,43.2c0-1.337,1.041-2.2,2.652-2.2,1.149,0,2.271.379,2.271.6a1.993,1.993,0,0,0,.7,1.553,4.366,4.366,0,0,0,3.119.65A1.675,1.675,0,0,1,22,45.2,1.787,1.787,0,0,1,20.231,47H14.692C13.233,47,12,45.26,12,43.2Z"/><rect x="14" y="42" width="2" height="2"/></g></svg>