<svg xmlns="http://www.w3.org/2000/svg" viewBox="0 0 64 64"><g id="_21-garnish" data-name="21-garnish"><path d="M36.95,3.85,38,7H28l1.05-3.15A4.172,4.172,0,0,1,33,1a4.128,4.128,0,0,1,2.43.79A4.223,4.223,0,0,1,36.95,3.85Z" style="fill:#e9986a"/><path d="M57,37V57a3,3,0,0,1-3,3H38a3,3,0,0,1-3-3V37a4.211,4.211,0,0,1,2.45.12,15.458,15.458,0,0,0,2.52.44A24.413,24.413,0,0,0,44,36.88c1.69-.22,3.44.11,5.12-.16.7-.12,1.38-.34,2.08-.48A17.374,17.374,0,0,1,54.74,36a4.877,4.877,0,0,1,1.38.16A1.244,1.244,0,0,1,57,37Z" style="fill:#e9986a"/><ellipse cx="16" cy="28" rx="9" ry="2" style="fill:#4c8db0"/><path d="M25,28V59a1,1,0,0,1-1,1H8a1,1,0,0,1-1-1V28c0,1.1,4.03,2,9,2S25,29.1,25,28Z" style="fill:#65adaf"/><path d="M59.28,6H61.6A1.454,1.454,0,0,1,63,7.5,1.454,1.454,0,0,1,61.6,9H39l-.32-.1A7.286,7.286,0,0,0,39,7Z" style="fill:#bd4c3d"/><path d="M38,7h1a7.286,7.286,0,0,1-.32,1.9A5.443,5.443,0,0,1,33,13c-6,0-6-6-6-6H38Z" style="fill:#da684e"/><path d="M36,25a2.006,2.006,0,0,1,2-2h2v3H36Z" style="fill:#c2eddc"/><path d="M54,23a2.006,2.006,0,0,1,2,2v1H52V23Z" style="fill:#c2eddc"/><rect x="40" y="26" width="12" height="3" style="fill:#bd4c3d"/><rect x="40" y="23" width="12" height="3" style="fill:#bd4c3d"/><rect x="38" y="15" width="16" height="8" rx="3" ry="3" style="fill:#da684e"/><path d="M21,1a2.006,2.006,0,0,1,2,2,1.955,1.955,0,0,1-.59,1.41A1.955,1.955,0,0,1,21,5H11A2.006,2.006,0,0,1,9,3a1.955,1.955,0,0,1,.59-1.41A1.955,1.955,0,0,1,11,1Z" style="fill:#da684e"/><path d="M25,59V28c0-1.1-4.03-2-9-2s-9,.9-9,2V59a1,1,0,0,0,1,1H24A1,1,0,0,0,25,59ZM4,61V25.03A6.973,6.973,0,0,1,7.5,19,6.961,6.961,0,0,0,11,12.97V8H21v4.97A6.973,6.973,0,0,0,24.5,19,6.961,6.961,0,0,1,28,25.03V61a2.006,2.006,0,0,1-2,2H6A2.006,2.006,0,0,1,4,61Z" style="fill:#eddebf"/><path d="M38,63a6,6,0,0,1-6-6V36a7.981,7.981,0,0,1,4-6.92V26h4v3H52V26h4v3.08A7.981,7.981,0,0,1,60,36V57a6,6,0,0,1-6,6Zm0-3H54a3,3,0,0,0,3-3V37a1.244,1.244,0,0,0-.88-.84A4.877,4.877,0,0,0,54.74,36a17.374,17.374,0,0,0-3.54.24c-.7.14-1.38.36-2.08.48-1.68.27-3.43-.06-5.12.16a24.413,24.413,0,0,1-4.03.68,15.458,15.458,0,0,1-2.52-.44A4.211,4.211,0,0,0,35,37V57A3,3,0,0,0,38,60Z" style="fill:#eddebf"/><rect x="11" y="5" width="10" height="3" style="fill:#eddebf"/><polygon points="52 23 52 26 40 26 40 23 41 23 51 23 52 23" style="fill:#a3c7b9"/><path d="M22.41,2.41A1.955,1.955,0,0,1,21,3H11A2,2,0,0,1,9.279,2,1.963,1.963,0,0,0,9,3a2.006,2.006,0,0,0,2,2H21a1.955,1.955,0,0,0,1.41-.59A1.959,1.959,0,0,0,22.721,2,1.938,1.938,0,0,1,22.41,2.41Z" style="fill:#bd4c3d"/><path d="M14,5H11v8.023a7.082,7.082,0,0,1-3.6,6.036A6.868,6.868,0,0,0,4.94,21.55,6.95,6.95,0,0,0,4,25.03V61a2.006,2.006,0,0,0,2,2H9a2.006,2.006,0,0,1-2-2V25.03a6.95,6.95,0,0,1,.94-3.48,6.868,6.868,0,0,1,2.46-2.491A7.082,7.082,0,0,0,14,13.023V10a2,2,0,0,1,2-2h5V5Z" style="fill:#d0d4b8"/><path d="M42,16.016V15H41a3,3,0,0,0-3,3v2a3,3,0,0,0,3,3H51a2.986,2.986,0,0,0,2.817-2H46.984A4.985,4.985,0,0,1,42,16.016Z" style="fill:#bd4c3d"/><path d="M47,17a2,2,0,0,0,2,2h1v1a1.987,1.987,0,0,0,.277,1h3.446A1.987,1.987,0,0,0,54,20V18a3,3,0,0,0-3-3H49A2,2,0,0,0,47,17Z" style="fill:#ea735c"/><path d="M42,29h0a2,2,0,0,1,2-2h4a2,2,0,0,1,2,2h2V26H40v3Z" style="fill:#9a3e32"/><path d="M62,8H42a1,1,0,0,1-1-1V6.9L39,7a7.286,7.286,0,0,1-.32,1.9L39,9H61.6A1.454,1.454,0,0,0,63,7.5a1.588,1.588,0,0,0-.035-.326A.987.987,0,0,1,62,8Z" style="fill:#9a3e32"/><path d="M30,7H27s0,6,6,6a5.911,5.911,0,0,0,3.672-1.106C29.169,11.178,30,7,30,7Z" style="fill:#bd4c3d"/><path d="M36.094,6a5.076,5.076,0,0,1-5.035-4.513A4.178,4.178,0,0,0,29.05,3.85L28,7H38l-.333-1Z" style="fill:#de8054"/><path d="M35,37V57a3,3,0,0,0,3,3H54a2.986,2.986,0,0,0,2.817-2H53A16,16,0,0,1,37,42V37.022A3.317,3.317,0,0,0,35,37Z" style="fill:#de8054"/><path d="M56.817,58A2.986,2.986,0,0,1,54,60H38a3,3,0,0,1-3-3V37a3.317,3.317,0,0,1,2,.022v-.786A5.236,5.236,0,0,1,42.236,31h16A8.03,8.03,0,0,0,56,29.08V26H52v3H40V26H36v3.08A7.981,7.981,0,0,0,32,36V57a6,6,0,0,0,6,6H54a6,6,0,0,0,5.988-5.769A2.976,2.976,0,0,1,58,58Z" style="fill:#d0d4b8"/><rect x="8" y="60" width="16" height="3" rx="1.5" ry="1.5" style="fill:#d0d4b8"/><rect x="38" y="60" width="16" height="3" rx="1.5" ry="1.5" style="fill:#c3c7ad"/><path d="M23,40a2,2,0,0,0-2,2v2a2,2,0,0,0,4,0V42A2,2,0,0,0,23,40Z" style="fill:#87cdcf"/><path d="M25,28c0-.69-1.589-1.3-4-1.661v3.322C23.411,29.3,25,28.69,25,28Z" style="fill:#5baad4"/><path d="M21,29.661V36a2,2,0,0,0,4,0V28C25,28.69,23.411,29.3,21,29.661Z" style="fill:#87cdcf"/><path d="M25,28V23.923a5.979,5.979,0,0,0-2.252-4.687l-1.247-1A3.979,3.979,0,0,1,20,15.116V12a2,2,0,0,0-4,0v3.116a7.961,7.961,0,0,0,3,6.248l1.245,1A2,2,0,0,1,21,23.923v2.416C23.411,26.7,25,27.31,25,28Z" style="fill:#fff6e3"/><path d="M7.207,59.578A.982.982,0,0,0,8,60H24a.982.982,0,0,0,.793-.422C23.918,58.679,20.315,58,16,58S8.082,58.679,7.207,59.578Z" style="fill:#4c8db0"/><rect x="7" y="32" width="4" height="23" rx="2" ry="2" style="fill:#87cdcf"/><path d="M56.12,36.16a1.35,1.35,0,0,1,.819.683,8.874,8.874,0,0,0-2.156-5.174,2,2,0,1,0-2.99,2.656,4.546,4.546,0,0,1,.933,1.724c.667-.046,1.342-.055,2.014-.049A4.877,4.877,0,0,1,56.12,36.16Z" style="fill:#fff6e3"/><path d="M56.12,36.16A4.877,4.877,0,0,0,54.74,36c-.672-.006-1.347,0-2.014.049A6.7,6.7,0,0,1,53,38V49a2,2,0,0,0,4,0V38c0-.4-.025-.78-.061-1.157A1.35,1.35,0,0,0,56.12,36.16Z" style="fill:#ffebc2"/><path d="M55,52a2,2,0,0,0-2,2v2a2,2,0,0,0,4,0V54A2,2,0,0,0,55,52Z" style="fill:#ffebc2"/><rect x="50.5" y="44.5" width="16" height="3" rx="1.5" ry="1.5" transform="translate(104.5 -12.5) rotate(90)" style="fill:#f7e8c7"/><rect x="25.5" y="44.5" width="16" height="3" rx="1.5" ry="1.5" transform="translate(79.5 12.5) rotate(90)" style="fill:#eddebf"/><rect x="14.5" y="40.5" width="24" height="3" rx="1.5" ry="1.5" transform="translate(68.5 15.5) rotate(90)" style="fill:#f7e8c7"/><rect x="-6.5" y="40.5" width="24" height="3" rx="1.5" ry="1.5" transform="translate(47.5 36.5) rotate(90)" style="fill:#eddebf"/><ellipse cx="31.016" cy="3.75" rx="0.574" ry="0.413" transform="translate(6.426 23.022) rotate(-44.98)" style="fill:#ffbe99"/><ellipse cx="35.016" cy="4.75" rx="0.413" ry="0.574" style="fill:#ffbe99"/><ellipse cx="30.016" cy="5.75" rx="0.413" ry="0.574" style="fill:#ffbe99"/><ellipse cx="33.016" cy="2.75" rx="0.413" ry="0.574" transform="translate(7.718 24.143) rotate(-44.98)" style="fill:#ffbe99"/><ellipse cx="32.016" cy="4.75" rx="0.413" ry="0.574" transform="translate(6.012 24.021) rotate(-44.98)" style="fill:#ffbe99"/><ellipse cx="46.016" cy="50.75" rx="0.574" ry="0.413" transform="translate(-22.407 47.379) rotate(-44.98)" style="fill:#ffbe99"/><ellipse cx="49.016" cy="38.75" rx="0.574" ry="0.413" transform="translate(-13.046 45.988) rotate(-44.98)" style="fill:#ffbe99"/><ellipse cx="40.016" cy="48.75" rx="0.574" ry="0.413" transform="translate(-22.749 42.553) rotate(-44.98)" style="fill:#ffbe99"/><ellipse cx="48.016" cy="43.75" rx="0.413" ry="0.574" style="fill:#ffbe99"/><ellipse cx="42.016" cy="50.75" rx="0.413" ry="0.574" style="fill:#ffbe99"/><ellipse cx="49.016" cy="53.75" rx="0.413" ry="0.574" style="fill:#ffbe99"/><ellipse cx="51.016" cy="51.75" rx="0.413" ry="0.574" style="fill:#ffbe99"/><ellipse cx="38.016" cy="41.75" rx="0.413" ry="0.574" style="fill:#ffbe99"/><ellipse cx="45.016" cy="39.75" rx="0.413" ry="0.574" transform="translate(-14.924 43.453) rotate(-44.98)" style="fill:#ffbe99"/><ellipse cx="43.016" cy="38.75" rx="0.413" ry="0.574" transform="translate(-14.802 41.747) rotate(-44.98)" style="fill:#ffbe99"/><ellipse cx="45.016" cy="42.75" rx="0.413" ry="0.574" transform="translate(-17.045 44.331) rotate(-44.98)" style="fill:#ffbe99"/><ellipse cx="51.016" cy="39.75" rx="0.413" ry="0.574" transform="translate(-13.168 47.695) rotate(-44.98)" style="fill:#ffbe99"/><ellipse cx="41.016" cy="41.75" rx="0.413" ry="0.574" transform="translate(-17.508 41.211) rotate(-44.98)" style="fill:#ffbe99"/><ellipse cx="50.016" cy="48.75" rx="0.413" ry="0.574" style="fill:#ffbe99"/><ellipse cx="43.016" cy="52.75" rx="0.413" ry="0.574" style="fill:#ffbe99"/><ellipse cx="44.016" cy="45.75" rx="0.413" ry="0.574" style="fill:#ffbe99"/><ellipse cx="39.016" cy="43.75" rx="0.413" ry="0.574" style="fill:#ffbe99"/><ellipse cx="48.016" cy="46.75" rx="0.413" ry="0.574" transform="translate(-18.994 47.623) rotate(-44.98)" style="fill:#ffbe99"/><ellipse cx="41.016" cy="46.75" rx="0.413" ry="0.574" transform="translate(-21.043 42.675) rotate(-44.98)" style="fill:#ffbe99"/><ellipse cx="47.016" cy="48.75" rx="0.413" ry="0.574" transform="translate(-20.7 47.501) rotate(-44.98)" style="fill:#ffbe99"/><ellipse cx="45.016" cy="54.75" rx="0.413" ry="0.574" transform="translate(-25.527 47.843) rotate(-44.98)" style="fill:#ffbe99"/><ellipse cx="51.016" cy="43.75" rx="0.413" ry="0.574" transform="translate(-15.995 48.865) rotate(-44.98)" style="fill:#ffbe99"/><ellipse cx="52.016" cy="46.75" rx="0.413" ry="0.574" transform="translate(-17.823 50.45) rotate(-44.98)" style="fill:#ffbe99"/><path d="M51,21H41a3,3,0,0,1-3-3v2a3,3,0,0,0,3,3H51a3,3,0,0,0,3-3V18A3,3,0,0,1,51,21Z" style="fill:#9a3e32"/><path d="M57,28.525V25a3,3,0,0,0-2.579-2.958A3.959,3.959,0,0,0,55,20V18a4,4,0,0,0-4-4H41a4,4,0,0,0-4,4v2a3.959,3.959,0,0,0,.579,2.042A3,3,0,0,0,35,25v3.525A9.031,9.031,0,0,0,31,36V57a7.008,7.008,0,0,0,7,7H54a7.008,7.008,0,0,0,7-7V36A9.031,9.031,0,0,0,57,28.525ZM39,18a2,2,0,0,1,2-2H51a2,2,0,0,1,2,2v2a2,2,0,0,1-2,2H41a2,2,0,0,1-2-2ZM59,57a5.006,5.006,0,0,1-5,5H38a5.006,5.006,0,0,1-5-5V36a7.027,7.027,0,0,1,3.5-6.056,1,1,0,0,0,.5-.865V25a1,1,0,0,1,1-1H54a1,1,0,0,1,1,1v4.079a1,1,0,0,0,.5.865A7.027,7.027,0,0,1,59,36Z"/><path d="M39,29a1,1,0,0,0,1,1H52a1,1,0,0,0,1-1V27h1V25H38v2h1Zm12-1H41V27H51Z"/><rect x="34" y="42" width="2" height="2"/><path d="M54.748,35A18.74,18.74,0,0,0,51,35.261c-.315.064-.627.142-.939.221-.366.093-.732.188-1.106.248a13.52,13.52,0,0,1-2.471.085,16.555,16.555,0,0,0-2.613.077,16.252,16.252,0,0,0-1.644.332A9.15,9.15,0,0,1,40,36.563a8.565,8.565,0,0,1-1.619-.268c-.244-.056-.488-.111-.732-.159l-.36-.076a4.286,4.286,0,0,0-2.673.017A1,1,0,0,0,34,37v3h2V37.859a7.427,7.427,0,0,1,.865.155l.395.084c.226.044.45.095.676.147a10.308,10.308,0,0,0,2,.317,9.871,9.871,0,0,0,2.758-.393c.5-.119.973-.232,1.443-.295a14.618,14.618,0,0,1,2.3-.059,15.322,15.322,0,0,0,2.841-.11c.432-.071.855-.177,1.277-.284.28-.07.56-.142.843-.2A16.428,16.428,0,0,1,54.729,37a3.769,3.769,0,0,1,1.071.109c.1.034.172.078.2.078V57a2,2,0,0,1-2,2H38a2,2,0,0,1-2-2V46H34V57a4,4,0,0,0,4,4H54a4,4,0,0,0,4-4V37a1,1,0,0,0-.04-.281,2.224,2.224,0,0,0-1.522-1.5A5.348,5.348,0,0,0,54.748,35Z"/><path d="M25,18.132a5.959,5.959,0,0,1-3-5.163V5.816A2.993,2.993,0,0,0,21,0H11a2.993,2.993,0,0,0-1,5.816V10h2V9h8v3.969a7.962,7.962,0,0,0,4,6.9,5.959,5.959,0,0,1,3,5.163V27h2V25.031A7.962,7.962,0,0,0,25,18.132ZM11,2H21a1,1,0,0,1,0,2H11a1,1,0,0,1,0-2Zm1,5V6h8V7Z"/><rect x="27" y="29" width="2" height="2"/><path d="M27,61a1,1,0,0,1-1,1H6a1,1,0,0,1-1-1V25.031a5.959,5.959,0,0,1,3-5.163,7.962,7.962,0,0,0,4-6.9V12H10v.969a5.959,5.959,0,0,1-3,5.163,7.962,7.962,0,0,0-4,6.9V61a3,3,0,0,0,3,3H26a3,3,0,0,0,3-3V33H27Z"/><path d="M6,28V59a2,2,0,0,0,2,2H24a2,2,0,0,0,2-2V28c0-2.783-7.654-3-10-3S6,25.217,6,28ZM8,59V29.982C10.435,30.9,14.419,31,16,31s5.565-.1,8-1.018V59Zm8-32a22.487,22.487,0,0,1,7.616,1A22.487,22.487,0,0,1,16,29a22.487,22.487,0,0,1-7.616-1A22.487,22.487,0,0,1,16,27Z"/><path d="M61.6,5H59.227L38.97,6h-.249L37.9,3.529a5.162,5.162,0,0,0-9.794,0L27.279,6H27a1,1,0,0,0-1,1c0,2.421,1.463,7,7,7a6.42,6.42,0,0,0,6.363-4H61.6A2.452,2.452,0,0,0,64,7.5,2.452,2.452,0,0,0,61.6,5ZM30,4.162a3.162,3.162,0,0,1,6,0L36.613,6H29.387ZM33,12a4.587,4.587,0,0,1-4.895-4H37.89A4.611,4.611,0,0,1,33,12ZM61.6,8H39.926c0-.015,0-.029,0-.044L59.276,7H61.6a.464.464,0,0,1,.4.5A.464.464,0,0,1,61.6,8Z"/></g></svg>