<?xml version="1.0" encoding="UTF-8"?>
<!DOCTYPE svg PUBLIC "-//W3C//DTD SVG 1.1//EN" "http://www.w3.org/Graphics/SVG/1.1/DTD/svg11.dtd">
<!-- Creator: CorelDRAW -->
<svg xmlns="http://www.w3.org/2000/svg" xml:space="preserve" width="2048px" height="2048px" style="shape-rendering:geometricPrecision; text-rendering:geometricPrecision; image-rendering:optimizeQuality; fill-rule:evenodd; clip-rule:evenodd"
viewBox="0 0 2048 2048"
 xmlns:xlink="http://www.w3.org/1999/xlink">
 <defs>
  <style type="text/css">
   <![CDATA[
    .fil2 {fill:none}
    .fil0 {fill:#212121;fill-rule:nonzero}
    .fil1 {fill:#66BB6A;fill-rule:nonzero}
   ]]>
  </style>
 </defs>
 <g id="Layer_x0020_1">
  <metadata id="CorelCorpID_0Corel-Layer"/>
  <path class="fil0" d="M332.736 1113.06l1382.53 0c12.3331,0 23.5252,5.02559 31.6181,13.1185 8.09292,8.09292 13.1173,19.2851 13.1173,31.6181l0 121.935c0,12.3331 -5.02441,23.5252 -13.1173,31.6181 -8.09292,8.09292 -19.2851,13.1173 -31.6181,13.1173l-1382.53 0c-12.3331,0 -23.5252,-5.02441 -31.6181,-13.1173 -8.09292,-8.09292 -13.1173,-19.2851 -13.1173,-31.6181l0 -121.935c0,-12.3331 5.02441,-23.5252 13.1173,-31.6181 8.09292,-8.09292 19.2851,-13.1185 31.6181,-13.1185zm1365.93 61.3359l-1349.33 0 0 88.7363 1349.33 0 0 -88.7363z"/>
  <path class="fil0" d="M332.735 1531.93l1382.53 0c12.6992,0 24.2268,5.17441 32.5607,13.5083 8.33386,8.33386 13.5083,19.8567 13.5083,32.5607l0 121.936c0,12.7039 -5.17441,24.2268 -13.5083,32.5607 -8.33386,8.33386 -19.8614,13.5083 -32.5607,13.5083l-1382.53 0c-12.6992,0 -24.2268,-5.17441 -32.5607,-13.5083 -8.33386,-8.33386 -13.5083,-19.8567 -13.5083,-32.5607l0 -121.936c0,-12.7039 5.17441,-24.2268 13.5083,-32.5607 8.33386,-8.33386 19.8614,-13.5083 32.5607,-13.5083zm1364.6 64.0016l-1346.67 0 0 86.0705 1346.67 0 0 -86.0705z"/>
  <polygon class="fil0" points="410.694,1293.8 410.694,1563.93 346.693,1563.93 346.693,1293.8 "/>
  <polygon class="fil0" points="1701.31,1293.8 1701.31,1563.93 1637.31,1563.93 1637.31,1293.8 "/>
  <path class="fil1" d="M616.183 620.074c-37.4221,88.7209 58.6217,236.387 154.661,384.051 17.0102,26.1532 34.0229,52.3063 50.3705,78.2694l-72.4949 0c-9.62245,-14.9504 -19.3843,-29.9587 -29.1461,-44.967 -104.861,-161.225 -209.725,-322.455 -159.692,-441.074 1.18701,-2.81457 2.45551,-5.62087 3.79725,-8.41182l0 -0.120473c17.1425,-35.6114 43.35,-60.8741 75.1418,-73.4339 31.9288,-12.6142 68.6469,-12.1063 106.608,3.90591 3.37087,1.42087 6.19134,2.67756 8.46024,3.77008 123.056,59.2406 131.242,259.632 139.425,460.022 1.37599,33.7229 2.75433,67.4457 4.67244,100.309l-61.2414 0c-1.84252,-32.217 -3.18425,-65.0646 -4.52599,-97.9135 -7.43032,-181.977 -14.863,-363.956 -104.924,-407.312 -2.42481,-1.16693 -4.29095,-2.02795 -5.58544,-2.57362 -22.2992,-9.40513 -43.0465,-10.0299 -60.3674,-3.1878 -17.4579,6.89764 -32.2914,21.6851 -42.5563,43.0087l-0.0472441 -0.022441c-0.862205,1.79764 -1.71378,3.69331 -2.55355,5.67993z"/>
  <path class="fil1" d="M583.648 583.099c10.0784,14.4272 29.9481,17.9528 44.3752,7.87442 14.4272,-10.0784 17.9528,-29.9481 7.87442,-44.3752 -18.8244,-26.8713 -41.2418,-52.93 -66.4713,-78.3473 -24.8752,-25.0595 -52.6512,-49.6878 -82.5225,-73.9985 -13.6689,-11.1142 -33.7607,-9.04371 -44.8748,4.6252 -11.1142,13.6689 -9.04371,33.7607 4.6252,44.8748 28.1126,22.8792 54.2115,46.0146 77.5217,69.4985 22.9524,23.1236 43.0429,46.3949 59.4721,69.8481z"/>
  <path class="fil1" d="M644.683 535.217c0.689764,17.6043 15.5209,31.3158 33.1252,30.626 17.6043,-0.689764 31.3158,-15.5209 30.626,-33.1252 -1.33583,-32.8028 -6.1252,-66.8067 -13.6193,-101.745 -7.42914,-34.6335 -17.5004,-70.3512 -29.4851,-106.85 -5.45315,-16.7752 -23.4756,-25.9536 -40.2508,-20.5004 -16.7752,5.45315 -25.9536,23.4756 -20.5004,40.2508 11.3386,34.5331 20.8217,68.1048 27.737,100.349 6.8504,31.9359 11.2028,62.4048 12.3673,90.9946z"/>
  <path class="fil1" d="M660.849 724.346c-16.7752,5.31496 -26.0658,23.2252 -20.7508,40.0004 5.31496,16.7752 23.2252,26.0658 40.0004,20.7508l18.8728 -6.0189c16.7752,-5.31496 26.0658,-23.2252 20.7508,-40.0004 -5.31496,-16.7752 -23.2252,-26.0658 -40.0004,-20.7508l-18.8728 6.0189z"/>
  <path class="fil1" d="M758.037 855.586c-16.7752,5.31496 -26.0658,23.2252 -20.7508,40.0004 5.31496,16.7752 23.2252,26.0658 40.0004,20.7508l18.8728 -6.0189c16.7752,-5.31496 26.0658,-23.2252 20.7508,-40.0004 -5.31496,-16.7752 -23.2252,-26.0658 -40.0004,-20.7508l-18.8728 6.0189z"/>
  <path class="fil1" d="M1047.52 620.074c-37.4221,88.7209 58.6205,236.387 154.661,384.051 17.0102,26.1532 34.0217,52.3063 50.3705,78.2694l-72.4961 0c-9.62245,-14.9504 -19.3831,-29.9587 -29.1449,-44.967 -104.862,-161.225 -209.725,-322.455 -159.692,-441.074 1.18701,-2.81457 2.45433,-5.62087 3.79725,-8.41182l0 -0.120473c17.1437,-35.6126 43.3512,-60.8741 75.1418,-73.4339 31.9276,-12.6142 68.6469,-12.1063 106.606,3.90591 3.37205,1.42087 6.19252,2.67756 8.46142,3.77008 123.056,59.2406 131.242,259.632 139.425,460.022 1.37599,33.7229 2.75433,67.4457 4.67244,100.309l-61.2414 0c-1.84252,-32.217 -3.18544,-65.0646 -4.52599,-97.9135 -7.43032,-181.977 -14.863,-363.956 -104.924,-407.312 -2.42599,-1.16693 -4.29095,-2.02795 -5.58544,-2.57362 -22.3004,-9.40513 -43.0477,-10.0299 -60.3674,-3.1878 -17.4591,6.89764 -32.2914,21.6851 -42.5575,43.0087l-0.046063 -0.022441c-0.862205,1.79764 -1.71496,3.69331 -2.55355,5.67993z"/>
  <path class="fil1" d="M1014.99 583.099c10.0784,14.4272 29.9481,17.9528 44.3752,7.87442 14.4272,-10.0784 17.9528,-29.9481 7.87442,-44.3752 -18.8244,-26.8713 -41.2429,-52.9311 -66.4725,-78.3473 -24.8729,-25.0595 -52.65,-49.6878 -82.5225,-73.9985 -13.6689,-11.1142 -33.7607,-9.04371 -44.8748,4.6252 -11.1142,13.6689 -9.04371,33.7607 4.6252,44.8748 28.115,22.8803 54.2138,46.0158 77.5217,69.4985 22.9547,23.1248 43.0441,46.3949 59.4733,69.8481z"/>
  <path class="fil1" d="M1076.02 535.217c0.689764,17.6043 15.5209,31.3158 33.1252,30.626 17.6043,-0.689764 31.3158,-15.5209 30.626,-33.1252 -1.33465,-32.8028 -6.12402,-66.8056 -13.6181,-101.745 -7.42914,-34.6335 -17.5004,-70.3512 -29.4862,-106.85 -5.45315,-16.7752 -23.4756,-25.9536 -40.2508,-20.5004 -16.7752,5.45315 -25.9536,23.4756 -20.5004,40.2508 11.3398,34.5319 20.8229,68.1048 27.7382,100.349 6.8504,31.9359 11.2028,62.4048 12.3662,90.9946z"/>
  <path class="fil1" d="M1092.19 724.346c-16.7752,5.31496 -26.0658,23.2252 -20.7508,40.0004 5.31496,16.7752 23.2252,26.0658 40.0004,20.7508l18.874 -6.0189c16.7752,-5.31496 26.0658,-23.2252 20.7508,-40.0004 -5.31496,-16.7752 -23.2252,-26.0658 -40.0004,-20.7508l-18.874 6.0189z"/>
  <path class="fil1" d="M1189.37 855.586c-16.7752,5.31496 -26.0658,23.2252 -20.7508,40.0004 5.31496,16.7752 23.2252,26.0658 40.0004,20.7508l18.874 -6.0189c16.7752,-5.31496 26.0658,-23.2252 20.7508,-40.0004 -5.31496,-16.7752 -23.2252,-26.0658 -40.0004,-20.7508l-18.874 6.0189z"/>
 </g>
 <rect class="fil2" width="2048" height="2048"/>
</svg>
